<svg xmlns="http://www.w3.org/2000/svg" width="48.175" height="48.174" viewBox="0 0 48.175 48.174"><g transform="translate(0 0)"><path d="M24.088,0A24.087,24.087,0,1,0,48.175,24.088,24.087,24.087,0,0,0,24.088,0Z" transform="translate(48.175 48.174) rotate(180)" fill="#9b28d5"/><g transform="translate(37.76 32.002) rotate(180)"><path d="M26.279.571a1.494,1.494,0,0,0-2.1-.252L20.218,3.433,16.208.315A1.494,1.494,0,0,0,14.4.293l-4.254,3.15L6.265.329A1.494,1.494,0,0,0,4.273.438L.438,4.273A1.494,1.494,0,0,0,2.551,6.386L5.439,3.5l3.737,3A1.5,1.5,0,0,0,11,6.531L15.269,3.37,19.3,6.509a1.494,1.494,0,0,0,1.84,0L26.027,2.67A1.494,1.494,0,0,0,26.279.571Z" transform="translate(0 0)" fill="#fff"/><path d="M26.279.572a1.493,1.493,0,0,0-2.1-.252L20.218,3.433,16.209.315A1.494,1.494,0,0,0,14.4.294l-4.254,3.15L6.265.329A1.494,1.494,0,0,0,4.273.438L.438,4.274A1.494,1.494,0,0,0,2.551,6.386L5.439,3.5l3.737,3A1.5,1.5,0,0,0,11,6.531l4.269-3.161L19.3,6.51a1.494,1.494,0,0,0,1.84,0L26.027,2.67A1.494,1.494,0,0,0,26.279.572Z" transform="translate(0 9.364)" fill="#fff"/></g></g></svg>