<svg xmlns="http://www.w3.org/2000/svg" width="21.599" height="13.146" viewBox="0 0 21.599 13.146"><g transform="translate(21.599 13.146) rotate(180)"><path d="M21.34.464a1.213,1.213,0,0,0-1.7-.2L16.418,2.788,13.162.256A1.213,1.213,0,0,0,11.7.238L8.24,2.8,5.087.267A1.213,1.213,0,0,0,3.47.356L.356,3.47A1.213,1.213,0,0,0,2.071,5.186L4.417,2.841,7.451,5.275A1.214,1.214,0,0,0,8.933,5.3L12.4,2.737l3.277,2.549a1.213,1.213,0,0,0,1.495,0l3.964-3.115A1.213,1.213,0,0,0,21.34.464Z" transform="translate(0 0)" fill="#5e4490"/><path d="M21.34.464a1.213,1.213,0,0,0-1.7-.2L16.418,2.788,13.162.256A1.213,1.213,0,0,0,11.7.239L8.24,2.8,5.087.267A1.213,1.213,0,0,0,3.47.356L.356,3.47A1.213,1.213,0,0,0,2.071,5.186L4.417,2.841,7.451,5.275A1.214,1.214,0,0,0,8.933,5.3L12.4,2.737l3.277,2.549a1.213,1.213,0,0,0,1.495,0l3.964-3.115A1.213,1.213,0,0,0,21.34.464Z" transform="translate(0 7.604)" fill="#5e4490"/></g></svg>