<svg xmlns="http://www.w3.org/2000/svg" width="48.175" height="48.174" viewBox="0 0 48.175 48.174"><path d="M24.088,0A24.087,24.087,0,1,0,48.175,24.087,24.087,24.087,0,0,0,24.088,0Z" transform="translate(0 0)" fill="#e82b88"/><path d="M27.536,6.14a6.281,6.281,0,0,0-2.557-4.585A8.815,8.815,0,0,0,17.888.269,7.409,7.409,0,0,0,13.773,3.2,7.409,7.409,0,0,0,9.658.269,8.814,8.814,0,0,0,2.567,1.554,6.282,6.282,0,0,0,.01,6.14C-.182,9.423,2.487,12.152,2.6,12.267a1.708,1.708,0,0,0,2.314.073,1.481,1.481,0,0,0,.077-2.181c-.018-.018-1.827-1.9-1.713-3.849A3.334,3.334,0,0,1,4.7,3.9a5.5,5.5,0,0,1,4.054-.663c1.493.405,2.625,1.683,3.367,3.8l.018,8.547L12.128,19.7a1.591,1.591,0,0,0,1.634,1.546h.024A1.591,1.591,0,0,0,15.419,19.7l-.009-4.121.018-8.544c.742-2.115,1.874-3.392,3.367-3.8a5.512,5.512,0,0,1,4.054.663,3.338,3.338,0,0,1,1.418,2.4c.122,1.952-1.685,3.834-1.716,3.865a1.481,1.481,0,0,0,.081,2.177,1.709,1.709,0,0,0,2.314-.073C25.059,12.152,27.728,9.423,27.536,6.14Z" transform="translate(10.607 13.691)" fill="#fff"/></svg>