<svg xmlns="http://www.w3.org/2000/svg" width="19.768" height="15.244" viewBox="0 0 19.768 15.244"><path d="M19.761,4.406a4.508,4.508,0,0,0-1.835-3.291A6.326,6.326,0,0,0,12.837.193,5.317,5.317,0,0,0,9.884,2.3,5.317,5.317,0,0,0,6.931.193a6.326,6.326,0,0,0-5.089.923A4.508,4.508,0,0,0,.007,4.406,6.537,6.537,0,0,0,1.866,8.8a1.226,1.226,0,0,0,1.66.052A1.063,1.063,0,0,0,3.582,7.29,4.4,4.4,0,0,1,2.353,4.528,2.392,2.392,0,0,1,3.371,2.8,3.95,3.95,0,0,1,6.28,2.321,3.818,3.818,0,0,1,8.7,5.046L8.71,11.18,8.7,14.135a1.142,1.142,0,0,0,1.172,1.109h.017a1.142,1.142,0,0,0,1.172-1.109l-.006-2.957.013-6.131a3.818,3.818,0,0,1,2.416-2.725A3.956,3.956,0,0,1,16.4,2.8a2.4,2.4,0,0,1,1.018,1.722,4.383,4.383,0,0,1-1.231,2.774,1.063,1.063,0,0,0,.058,1.562A1.226,1.226,0,0,0,17.9,8.8,6.537,6.537,0,0,0,19.761,4.406Z" fill="#5e4490"/></svg>