<svg xmlns="http://www.w3.org/2000/svg" width="48.175" height="48.174" viewBox="0 0 48.175 48.174"><path d="M24.088,0A24.087,24.087,0,1,0,48.175,24.087,24.087,24.087,0,0,0,24.088,0Z" transform="translate(0 0)" fill="#48b5dc"/><g transform="translate(12.116 13.563)"><path d="M20.05,2.091C7.341-4.143.374,5.539.305,5.638A1.694,1.694,0,0,0,3.077,7.586,11.129,11.129,0,0,1,14.145,3.62,5.307,5.307,0,1,0,20.05,2.091ZM18.184,8.98a1.92,1.92,0,1,1,.593-3.746q.066.027.133.049a1.92,1.92,0,0,1-.726,3.7Z" transform="translate(0.001 0)" fill="#fff"/><path d="M22.775,4.381a1.7,1.7,0,0,0-2.359.4A11.128,11.128,0,0,1,9.348,8.749a5.307,5.307,0,1,0-5.9,1.53A18.635,18.635,0,0,0,11.68,12.37,14.837,14.837,0,0,0,23.188,6.731,1.69,1.69,0,0,0,22.775,4.381ZM5.309,7.23a1.91,1.91,0,0,1-.593-.095q-.066-.027-.132-.048a1.918,1.918,0,1,1,.725.143Z" transform="translate(0 8.691)" fill="#fff"/></g></svg>