<svg xmlns="http://www.w3.org/2000/svg" width="16.303" height="14.615" viewBox="0 0 16.303 14.615"><path d="M13.913,1.451C5.094-2.875.26,3.844.212,3.912A1.176,1.176,0,0,0,2.135,5.264a7.722,7.722,0,0,1,7.68-2.752,3.682,3.682,0,1,0,4.1-1.061Zm-1.3,4.781a1.333,1.333,0,1,1,.412-2.6q.046.019.092.034a1.332,1.332,0,0,1-.5,2.566Z" transform="translate(0.001 0)" fill="#5e4490"/><path d="M15.8,3.04a1.178,1.178,0,0,0-1.637.279,7.722,7.722,0,0,1-7.68,2.752,3.682,3.682,0,1,0-4.1,1.062A12.931,12.931,0,0,0,8.105,8.584,10.3,10.3,0,0,0,16.09,4.671,1.172,1.172,0,0,0,15.8,3.04ZM3.684,5.017a1.325,1.325,0,0,1-.412-.066q-.045-.019-.092-.034a1.331,1.331,0,1,1,.5.1Z" transform="translate(0 6.031)" fill="#5e4490"/></svg>