<svg xmlns="http://www.w3.org/2000/svg" width="48.175" height="48.174" viewBox="0 0 48.175 48.174"><path d="M24.088,0A24.087,24.087,0,1,0,48.175,24.088,24.087,24.087,0,0,0,24.088,0Z" transform="translate(0 0)" fill="#eeab19"/><path d="M26.127,7.451a5.151,5.151,0,0,0-3.67-1.559,5.717,5.717,0,0,0-4.69,2.3c-.129-.61-.239-1.206-.337-1.74a12.562,12.562,0,0,0-.906-3.417C14.58-.464,11.67-.127,10.507.181a6.6,6.6,0,0,0-2.52,1.341A5.794,5.794,0,0,0,5.055.1,6.566,6.566,0,0,0,.539,1.113,1.191,1.191,0,0,0,.265,2.856a1.4,1.4,0,0,0,1.871.255,3.871,3.871,0,0,1,2.456-.554A3.583,3.583,0,0,1,6.777,4v8.163a1.294,1.294,0,0,0,1.337,1.246,1.294,1.294,0,0,0,1.337-1.246V3.72a3.477,3.477,0,0,1,2.365-1.231A2.661,2.661,0,0,1,14.148,4.18a13.667,13.667,0,0,1,.645,2.692,20.758,20.758,0,0,0,1.716,5.961,3.782,3.782,0,0,1-.825,1.6c-1.432.908-3.857,2.147-4.969,2.169a1.248,1.248,0,1,0,.029,2.491h.029c2.333-.047,5.846-2.233,6.527-2.671a1.321,1.321,0,0,0,.157-.119,4.788,4.788,0,0,0,1.033-1.334,4.165,4.165,0,0,0,.514.245l.077.028c.39.128,3.883,1.213,6.3-.215a4.181,4.181,0,0,0,2.028-3.318A5.757,5.757,0,0,0,26.127,7.451Zm-1.377,4a1.726,1.726,0,0,1-.8,1.472c-1.1.652-3.222.208-3.94-.015a1.863,1.863,0,0,1-.666-.518,11.428,11.428,0,0,0,.177-1.535,2.8,2.8,0,0,1,2.829-2.477,2.4,2.4,0,0,1,1.73.677A3.43,3.43,0,0,1,24.75,11.455Z" transform="translate(9.9 14.953)" fill="#fff"/></svg>