<svg xmlns="http://www.w3.org/2000/svg" xmlns:xlink="http://www.w3.org/1999/xlink" width="29.466" height="25.338" viewBox="0 0 29.466 25.338"><defs><style>.a{fill:url(#a);}</style><linearGradient id="a" x1="1" y1="0.5" x2="0" y2="0.5" gradientUnits="objectBoundingBox"><stop offset="0" stop-color="#4a5197"/><stop offset="0.486" stop-color="#a92b80"/><stop offset="0.835" stop-color="#e61371"/><stop offset="1" stop-color="#ff0a6c"/></linearGradient></defs><g transform="translate(0)"><path class="a" d="M29.086,57.181,17,37.137a2.647,2.647,0,0,0-4.534,0L.379,57.181A2.647,2.647,0,0,0,2.646,61.2H26.819a2.647,2.647,0,0,0,2.267-4.014Zm-1.632,1.725a.73.73,0,0,1-.635.37H2.646a.729.729,0,0,1-.624-1.1L14.108,38.128a.729.729,0,0,1,1.248,0L27.443,58.172A.73.73,0,0,1,27.453,58.907Z" transform="translate(0 -35.857)"/><g transform="translate(13.442 7.893)"><path class="a" d="M234.877,173.005c-.73,0-1.3.392-1.3,1.086,0,2.118.249,5.161.249,7.279,0,.552.481.783,1.05.783.427,0,1.032-.231,1.032-.783,0-2.118.249-5.161.249-7.279A1.144,1.144,0,0,0,234.877,173.005Z" transform="translate(-233.578 -173.005)"/></g><g transform="translate(13.389 18.269)"><g transform="translate(0 0)"><path class="a" d="M234.021,353.306a1.37,1.37,0,1,0,0,2.741,1.371,1.371,0,0,0,0-2.741Z" transform="translate(-232.651 -353.306)"/></g></g></g></svg>