<svg xmlns="http://www.w3.org/2000/svg" width="21.117" height="16.518" viewBox="0 0 21.117 16.518"><path d="M20.945,13.278l-2.067-2.542a.846.846,0,0,0-1.47.38L17.236,12.4c-1.051.033-1.337-.553-1.41-.937V2.119C15.826.872,14.628,0,12.912,0A4.564,4.564,0,0,0,10.4.714l-.045.032A4.482,4.482,0,0,0,6.314.317a3,3,0,0,0-.607.389A4.3,4.3,0,0,0,1.792.343,3.655,3.655,0,0,0,0,3.263,1.077,1.077,0,0,0,1.036,4.386a1.108,1.108,0,0,0,1.193-.979,1.624,1.624,0,0,1,.61-1.189,2.108,2.108,0,0,1,1.606.26v9.065a1.117,1.117,0,0,0,2.232,0V3.3a1.579,1.579,0,0,1,.646-1.088,2.226,2.226,0,0,1,1.7.267v9.064a1.117,1.117,0,0,0,2.232,0v-8.3s0,0,0,0c0-.174,0-.635.725-.933a2.3,2.3,0,0,1,1.619-.059v9.3a1.028,1.028,0,0,0,.007.121,3.352,3.352,0,0,0,3.351,2.859l-.137,1.02a.646.646,0,0,0-.016.144.712.712,0,0,0,.413.7.785.785,0,0,0,.862,0,.7.7,0,0,0,.136-.095l2.592-1.91A.769.769,0,0,0,20.945,13.278Z" fill="#5e4490"/></svg>