<svg xmlns="http://www.w3.org/2000/svg" width="48.175" height="48.174" viewBox="0 0 48.175 48.174"><path d="M24.088,0A24.087,24.087,0,1,0,48.175,24.088,24.087,24.087,0,0,0,24.088,0Z" transform="translate(0 0)" fill="#48b5dc"/><path d="M26.285,16.664l-2.594-3.19a1.062,1.062,0,0,0-1.845.477c-.021.161-.108.81-.216,1.612-1.318.042-1.678-.694-1.77-1.176V2.659C19.861,1.094,18.357,0,16.2,0a5.727,5.727,0,0,0-3.147.9L13,.936C11.01-.086,9.3-.267,7.923.4a3.758,3.758,0,0,0-.762.488C5.227-.083,3.577-.237,2.249.431A4.587,4.587,0,0,0,0,4.095,1.352,1.352,0,0,0,1.3,5.5,1.39,1.39,0,0,0,2.8,4.276a2.038,2.038,0,0,1,.765-1.492,2.646,2.646,0,0,1,2.015.326V14.486a1.4,1.4,0,0,0,2.8,0V4.14a1.981,1.981,0,0,1,.811-1.365,2.793,2.793,0,0,1,2.13.335V14.486a1.4,1.4,0,0,0,2.8,0V4.064s0,0,0-.006c0-.218,0-.8.909-1.171a2.892,2.892,0,0,1,2.031-.074V14.486a1.29,1.29,0,0,0,.009.152,4.207,4.207,0,0,0,4.2,3.588l-.171,1.28a.811.811,0,0,0-.02.18.894.894,0,0,0,.518.884.985.985,0,0,0,1.082,0,.883.883,0,0,0,.17-.119l3.253-2.4A.964.964,0,0,0,26.285,16.664Z" transform="translate(10.499 13.895)" fill="#fff"/></svg>