<svg xmlns="http://www.w3.org/2000/svg" width="48.175" height="48.174" viewBox="0 0 48.175 48.174"><path d="M24.088,0A24.087,24.087,0,1,0,48.175,24.087,24.087,24.087,0,0,0,24.088,0Z" transform="translate(0 0)" fill="#9b28d5"/><path d="M14.827,15.452V4.871a17.556,17.556,0,0,0,5.1-2.672A1.091,1.091,0,0,0,19.992.4a1.957,1.957,0,0,0-2.3-.049,13.826,13.826,0,0,1-4.587,2.309,1.951,1.951,0,0,0-.728.172,10.522,10.522,0,0,1-2.395.205,11.2,11.2,0,0,1-2.337-.314L7.575,2.7A12.9,12.9,0,0,1,2.824.412,1.957,1.957,0,0,0,.53.333a1.092,1.092,0,0,0-.1,1.8A15.834,15.834,0,0,0,5.5,4.826V15.5A15.832,15.832,0,0,0,.425,18.192a1.089,1.089,0,0,0,.1,1.8,1.959,1.959,0,0,0,2.3-.074,12.888,12.888,0,0,1,4.541-2.238,1.951,1.951,0,0,0,.488-.119,11.148,11.148,0,0,1,2.131-.266,10.492,10.492,0,0,1,2.331.194,1.95,1.95,0,0,0,.866.206,13.894,13.894,0,0,1,4.512,2.287,1.885,1.885,0,0,0,1.118.349,1.862,1.862,0,0,0,1.181-.4,1.091,1.091,0,0,0-.062-1.8A17.585,17.585,0,0,0,14.827,15.452Zm-3.253-.659a14.776,14.776,0,0,0-1.738-.05c-.369.01-.729.035-1.081.07v-9.3c.352.035.712.06,1.081.07.144,0,.287.006.431.006q.657,0,1.307-.058Z" transform="translate(13.427 13.496)" fill="#fff"/></svg>