<svg xmlns="http://www.w3.org/2000/svg" width="17.01" height="16.916" viewBox="0 0 17.01 16.916"><path d="M12.34,12.86V4.054A14.612,14.612,0,0,0,16.587,1.83a.908.908,0,0,0,.052-1.5A1.629,1.629,0,0,0,14.725.291a11.507,11.507,0,0,1-3.817,1.922,1.624,1.624,0,0,0-.606.143,8.757,8.757,0,0,1-1.993.171,9.324,9.324,0,0,1-1.945-.261L6.3,2.251A10.738,10.738,0,0,1,2.35.343,1.629,1.629,0,0,0,.441.277a.909.909,0,0,0-.087,1.5A13.178,13.178,0,0,0,4.58,4.016V12.9A13.177,13.177,0,0,0,.354,15.141a.907.907,0,0,0,.085,1.494,1.631,1.631,0,0,0,1.911-.061A10.726,10.726,0,0,1,6.129,14.71a1.623,1.623,0,0,0,.406-.1,9.278,9.278,0,0,1,1.774-.221,8.732,8.732,0,0,1,1.94.161,1.623,1.623,0,0,0,.721.171,11.564,11.564,0,0,1,3.755,1.9,1.569,1.569,0,0,0,.93.291,1.549,1.549,0,0,0,.983-.331.908.908,0,0,0-.052-1.5A14.636,14.636,0,0,0,12.34,12.86Zm-2.707-.548a12.3,12.3,0,0,0-1.446-.041c-.307.009-.607.029-.9.058V4.587c.293.03.593.05.9.058.12,0,.239.005.359.005q.547,0,1.088-.048Z" fill="#5e4490"/></svg>