<svg xmlns="http://www.w3.org/2000/svg" width="34.117" height="34.117" viewBox="0 0 34.117 34.117"><path d="M2.218,18.235a11.272,11.272,0,0,0,5.915-1.663,9.144,9.144,0,0,1,4.808-1.278,9.147,9.147,0,0,1,4.808,1.278,11.272,11.272,0,0,0,5.915,1.663H34.026a.413.413,0,0,1,.045.009c.027-.392.046-.787.046-1.186s-.019-.794-.046-1.186c-.015,0-.029.009-.045.009H22.941a.588.588,0,0,1,0-1.176H33.951a17,17,0,0,0-.5-2.355.574.574,0,0,1-.165.034H15.882a.588.588,0,0,1,0-1.176h17.2a17,17,0,0,0-1.118-2.435.57.57,0,0,1-.288.086H28.235a.588.588,0,0,1,0-1.176h3.072A17.048,17.048,0,0,0,5.319,4.689h4.718a.588.588,0,0,1,0,1.176H4.723a.582.582,0,0,1-.394-.158A17.2,17.2,0,0,0,2.81,7.682H5.882a.588.588,0,1,1,0,1.176H2.436a.576.576,0,0,1-.288-.086,16.955,16.955,0,0,0-.875,1.815H4.622a.588.588,0,0,1,0,1.176H1.176a.572.572,0,0,1-.3-.1,17,17,0,0,0-.515,1.9H8.235a.588.588,0,1,1,0,1.176H.247a.576.576,0,0,1-.084-.017A17.184,17.184,0,0,0,0,17.058c0,.4.019.794.046,1.186a.377.377,0,0,1,.045-.009Z" fill="#cbb292"/><path d="M18.82,42.663a9.147,9.147,0,0,1-4.808,1.278A9.147,9.147,0,0,1,9.2,42.663,11.27,11.27,0,0,0,3.289,41H2.6a17,17,0,0,0,1.425,2.538.585.585,0,0,1,.419-.106A8.233,8.233,0,0,1,7.663,44.58a12.077,12.077,0,0,0,6.349,1.714,12.081,12.081,0,0,0,6.35-1.714,8.329,8.329,0,0,1,4.373-1.227h7.211a.573.573,0,0,1,.334.117A17,17,0,0,0,33.657,41H24.735A11.272,11.272,0,0,0,18.82,42.663Z" transform="translate(-1.071 -16.883)" fill="#fbd490"/><path d="M17.248,29.1A7.97,7.97,0,0,0,13.057,28a7.97,7.97,0,0,0-4.191,1.1,12.45,12.45,0,0,1-6.532,1.838H.281a16.969,16.969,0,0,0,.894,3.573.583.583,0,0,1,.215-.044h.944a12.45,12.45,0,0,1,6.532,1.838,7.973,7.973,0,0,0,4.192,1.1,7.97,7.97,0,0,0,4.191-1.1A12.45,12.45,0,0,1,23.78,34.47h9.179a.583.583,0,0,1,.215.044,16.96,16.96,0,0,0,.894-3.573H23.78A12.45,12.45,0,0,1,17.248,29.1Z" transform="translate(-0.116 -11.53)" fill="#d6bfa5"/><ellipse cx="11.176" cy="11.176" rx="11.176" ry="11.176" transform="translate(1.765 4.118)" fill="#d6bfa5"/><path d="M22.592,48.052a13.252,13.252,0,0,1-6.967,1.889,13.252,13.252,0,0,1-6.967-1.889,7.009,7.009,0,0,0-2.14-.867,17.052,17.052,0,0,0,21.866,3.932h-5.7a.588.588,0,1,1,0-1.176H29.24a.58.58,0,0,1,.5.292A17.143,17.143,0,0,0,33.112,47H26.347A7.154,7.154,0,0,0,22.592,48.052Z" transform="translate(-2.684 -19.354)" fill="#cbb292"/><ellipse cx="7.059" cy="7.059" rx="7.059" ry="7.059" transform="translate(4.118 6.47)" fill="#e5c5a5"/><path d="M25.732,45a8.331,8.331,0,0,0-4.373,1.227,12.077,12.077,0,0,1-6.349,1.714,12.081,12.081,0,0,1-6.35-1.714,8.224,8.224,0,0,0-3.217-1.148.579.579,0,0,0-.419.106q.415.608.879,1.177a7.03,7.03,0,0,1,2.14.867,13.252,13.252,0,0,0,6.967,1.889,13.252,13.252,0,0,0,6.967-1.889,7.154,7.154,0,0,1,3.756-1.052H32.5c.272-.344.535-.695.781-1.059A.576.576,0,0,0,32.943,45Z" transform="translate(-2.068 -18.53)" fill="#af8066"/><path d="M34.058,28.941H23.7a11.274,11.274,0,0,1-5.916-1.663A9.144,9.144,0,0,0,12.973,26a9.147,9.147,0,0,0-4.808,1.278A11.27,11.27,0,0,1,2.25,28.941H.122a.413.413,0,0,0-.045.009q.041.589.12,1.167H2.249a12.45,12.45,0,0,0,6.532-1.838,7.974,7.974,0,0,1,4.192-1.1,7.97,7.97,0,0,1,4.191,1.1A12.45,12.45,0,0,0,23.7,30.118H33.983q.079-.578.12-1.167A.377.377,0,0,0,34.058,28.941Z" transform="translate(-0.032 -10.706)" fill="#af8066"/><path d="M24.405,39a12.45,12.45,0,0,0-6.532,1.838,7.97,7.97,0,0,1-4.191,1.1,7.97,7.97,0,0,1-4.191-1.1A12.45,12.45,0,0,0,2.959,39H2.015a.58.58,0,0,0-.215.044c.143.385.3.762.471,1.133h.688A11.272,11.272,0,0,1,8.875,41.84a9.144,9.144,0,0,0,4.808,1.278A9.147,9.147,0,0,0,18.49,41.84a11.272,11.272,0,0,1,5.915-1.663h8.923c.169-.371.328-.748.471-1.133A.583.583,0,0,0,33.584,39Z" transform="translate(-0.741 -16.059)" fill="#af8066"/><path d="M40.145,52H33.588a.588.588,0,0,0,0,1.176h5.7q.7-.411,1.351-.885A.579.579,0,0,0,40.145,52Z" transform="translate(-13.589 -21.413)" fill="#af8066"/><path d="M38,25.588a.588.588,0,0,0,.588.588H49.674a.413.413,0,0,0,.045-.009q-.041-.589-.12-1.167H38.588A.588.588,0,0,0,38,25.588Z" transform="translate(-15.648 -10.295)" fill="#af8066"/><path d="M26,19.641a.588.588,0,0,0,.588.588H43.995a.57.57,0,0,0,.165-.034c-.111-.386-.23-.769-.367-1.143h-17.2A.588.588,0,0,0,26,19.641Z" transform="translate(-10.706 -7.846)" fill="#af8066"/><path d="M8.349,24.236a.588.588,0,1,0,0-1.176H.473c-.079.382-.143.769-.2,1.159a.576.576,0,0,0,.084.017Z" transform="translate(-0.114 -9.496)" fill="#af8066"/><path d="M47,13.648a.588.588,0,0,0,.588.588h3.446a.576.576,0,0,0,.288-.086q-.311-.559-.662-1.091H47.588A.588.588,0,0,0,47,13.648Z" transform="translate(-19.354 -5.378)" fill="#af8066"/><path d="M7.386,14.236a.588.588,0,1,0,0-1.176H4.313q-.35.532-.662,1.091a.57.57,0,0,0,.288.086Z" transform="translate(-1.503 -5.378)" fill="#af8066"/><path d="M5.234,19.176a.588.588,0,0,0,0-1.176H1.885c-.145.354-.278.715-.4,1.081a.572.572,0,0,0,.3.1Z" transform="translate(-0.612 -7.412)" fill="#af8066"/><path d="M13.066,9.147a.588.588,0,1,0,0-1.176H8.349c-.344.326-.675.665-.99,1.019a.582.582,0,0,0,.394.158Z" transform="translate(-3.03 -3.282)" fill="#af8066"/><path d="M33.613,8.353H32.293a.031.031,0,0,1-.012-.059,1.178,1.178,0,0,0,.791-1.315A1.221,1.221,0,0,0,31.848,6H28.97a1.176,1.176,0,0,0-1.176,1.148.029.029,0,0,1-.029.029H26.092a1.221,1.221,0,0,0-1.223.979A1.178,1.178,0,0,0,25.66,9.47a.031.031,0,0,1-.012.059H23.739a1.221,1.221,0,0,0-1.223.979,1.177,1.177,0,0,0,1.161,1.374h5.882a1.176,1.176,0,0,0,1.176-1.148.029.029,0,0,1,.029-.029h2.913a1.177,1.177,0,0,0,1.161-1.374A1.221,1.221,0,0,0,33.613,8.353Z" transform="translate(-9.265 -2.471)" fill="#fbd490"/><path d="M18.706,36.882c-2.551,0-4.706-1.347-4.706-2.941S16.155,31,18.706,31s4.706,1.347,4.706,2.941S21.257,36.882,18.706,36.882Z" transform="translate(-5.765 -12.765)" fill="#fbd490"/><ellipse cx="0.588" cy="0.588" rx="0.588" ry="0.588" transform="translate(1.765 1.765)" fill="#f3d55b"/><ellipse cx="0.588" cy="0.588" rx="0.588" ry="0.588" transform="translate(10 10.588)" fill="#f3d55b"/><ellipse cx="0.588" cy="0.588" rx="0.588" ry="0.588" transform="translate(11.764 12.941)" fill="#f3d55b"/><ellipse cx="0.588" cy="0.588" rx="0.588" ry="0.588" transform="translate(22.941 20.588)" fill="#f3d55b"/><ellipse cx="0.588" cy="0.588" rx="0.588" ry="0.588" transform="translate(3.529 31.764)" fill="#f3d55b"/><ellipse cx="0.588" cy="0.588" rx="0.588" ry="0.588" transform="translate(0.588 27.646)" fill="#f3d55b"/><ellipse cx="0.588" cy="0.588" rx="0.588" ry="0.588" transform="translate(7.059)" fill="#f3d55b"/><ellipse cx="0.588" cy="0.588" rx="0.588" ry="0.588" transform="translate(27.058 5.882)" fill="#f3d55b"/><ellipse cx="0.588" cy="0.588" rx="0.588" ry="0.588" transform="translate(31.764 31.176)" fill="#f3d55b"/></svg>