<svg xmlns="http://www.w3.org/2000/svg" width="48.175" height="48.174" viewBox="0 0 48.175 48.174"><path d="M24.088,0A24.087,24.087,0,1,0,48.175,24.087,24.087,24.087,0,0,0,24.088,0Z" transform="translate(0 0)" fill="#e82b88"/><path d="M20.175,16.715a1.541,1.541,0,0,0-1.652-1.4,1.515,1.515,0,0,0-1.5,1.544,2.8,2.8,0,0,1-.447,1.708c-.047.046-.111.109-.343.109a2.544,2.544,0,0,1-1.882-.531,2.858,2.858,0,0,1-.292-2.306,6.308,6.308,0,0,1,1.577-2.98c.361-.464.771-.991,1.16-1.6,1.3-2.018,1.988-3.333,1.132-6.875A5.916,5.916,0,0,0,15.148.858,8.141,8.141,0,0,0,9.057.341C5.512,1.212,4.693,5.169,4.8,8.311A5.014,5.014,0,0,0,0,13.155a5.046,5.046,0,0,0,5.2,4.86,5.045,5.045,0,0,0,5.2-4.86A4.792,4.792,0,0,0,8.017,9.071c-.156-1.786-.111-5.4,1.841-5.881a5.033,5.033,0,0,1,3.624.169,3.054,3.054,0,0,1,1.374,1.676c.62,2.563.272,3.1-.76,4.711-.319.5-.669.947-1.008,1.382a8.981,8.981,0,0,0-2.14,4.25,5.313,5.313,0,0,0,1.008,4.681,5.536,5.536,0,0,0,4.279,1.564A3.661,3.661,0,0,0,18.862,20.6,5.486,5.486,0,0,0,20.175,16.715ZM5.2,15.069a1.988,1.988,0,0,1-2.049-1.915A1.987,1.987,0,0,1,5.2,11.24a1.987,1.987,0,0,1,2.049,1.914A1.987,1.987,0,0,1,5.2,15.069Z" transform="translate(14.193 12.778)" fill="#fff"/></svg>