<svg xmlns="http://www.w3.org/2000/svg" width="16.544" height="17.727" viewBox="0 0 16.544 17.727"><path d="M16.539,13.7a1.264,1.264,0,0,0-1.354-1.147,1.242,1.242,0,0,0-1.227,1.265,2.3,2.3,0,0,1-.366,1.4c-.039.038-.091.09-.281.09a2.086,2.086,0,0,1-1.543-.436,2.343,2.343,0,0,1-.239-1.891,5.171,5.171,0,0,1,1.293-2.443c.3-.381.632-.812.951-1.31C14.835,7.578,15.4,6.5,14.7,3.6A4.85,4.85,0,0,0,12.419.7,6.674,6.674,0,0,0,7.425.28C4.519.993,3.847,4.238,3.935,6.813A4.111,4.111,0,0,0,0,10.785a4.136,4.136,0,0,0,4.265,3.984,4.136,4.136,0,0,0,4.264-3.984A3.929,3.929,0,0,0,6.572,7.437c-.128-1.464-.091-4.429,1.51-4.822a4.126,4.126,0,0,1,2.971.139,2.5,2.5,0,0,1,1.126,1.374c.508,2.1.223,2.545-.623,3.862-.261.407-.548.776-.826,1.133a7.362,7.362,0,0,0-1.754,3.484A4.356,4.356,0,0,0,9.8,16.445a4.539,4.539,0,0,0,3.508,1.282,3,3,0,0,0,2.153-.839A4.5,4.5,0,0,0,16.539,13.7ZM4.265,12.354a1.629,1.629,0,0,1-1.68-1.57,1.629,1.629,0,0,1,1.68-1.569,1.629,1.629,0,0,1,1.68,1.569A1.629,1.629,0,0,1,4.265,12.354Z" fill="#5e4490"/></svg>