<svg xmlns="http://www.w3.org/2000/svg" width="22.793" height="13.651" viewBox="0 0 22.793 13.651"><path d="M499.695,1393.279H478.942a1.021,1.021,0,0,0,0,2.042h20.753a1.021,1.021,0,0,0,0-2.042Z" transform="translate(-477.922 -1381.67)" fill="#5e4490"/><path d="M499.695,1387.228h-3.934v-.7a6.442,6.442,0,1,0-12.885,0v.7h-3.934a1.021,1.021,0,0,0,0,2.041H483.9a1.021,1.021,0,0,0,1.021-1.021v-1.722a4.4,4.4,0,1,1,8.8,0v1.722a1.02,1.02,0,0,0,1.02,1.021h4.954a1.021,1.021,0,0,0,0-2.041Z" transform="translate(-477.922 -1380.083)" fill="#5e4490"/></svg>