<svg xmlns="http://www.w3.org/2000/svg" width="58.458" height="58.526" viewBox="0 0 58.458 58.526"><path d="M24.1,0A24.04,24.04,0,1,1,0,24.053,24.033,24.033,0,0,1,24.1,0Z" transform="translate(0 46.692) rotate(-75.751)" fill="#9b28d5"/><g transform="translate(15.436 18.431)"><path d="M505.227,1393.279H479.2a1.28,1.28,0,0,0,0,2.56h26.025a1.28,1.28,0,0,0,0-2.56Z" transform="translate(-477.922 -1378.72)" fill="#fff"/><path d="M505.227,1389.043h-4.933v-.88a8.079,8.079,0,1,0-16.158,0v.88H479.2a1.28,1.28,0,0,0,0,2.56h6.214a1.28,1.28,0,0,0,1.28-1.28v-2.16a5.52,5.52,0,1,1,11.039,0v2.16a1.279,1.279,0,0,0,1.28,1.28h6.213a1.28,1.28,0,0,0,0-2.56Z" transform="translate(-477.922 -1380.083)" fill="#fff"/></g></svg>