<svg xmlns="http://www.w3.org/2000/svg" width="31.005" height="31.005" viewBox="0 0 31.005 31.005"><path d="M22.26,15.5a.535.535,0,0,1,.535-.535H31a15.443,15.443,0,0,0-.949-4.851.53.53,0,0,1-.2.04H16.724a.535.535,0,0,1,0-1.069h12.9a15.439,15.439,0,0,0-1.365-2.4.527.527,0,0,1-.452.266H22.464a.535.535,0,1,1,0-1.069h5.2A15.5,15.5,0,0,0,1.4,9.088H13.195a.535.535,0,0,1,0,1.069H1.17a.525.525,0,0,1-.2-.04,15.443,15.443,0,0,0-.949,4.851H4.682a.535.535,0,0,1,0,1.069H.025a15.435,15.435,0,0,0,1.162,5.392.526.526,0,0,1,.215-.047H12.276a.535.535,0,1,1,0,1.069H1.658a15.562,15.562,0,0,0,4.006,5.021.523.523,0,0,1,.413-.21H17.549a.535.535,0,1,1,0,1.069H6.811a15.506,15.506,0,0,0,17.407,0H20.969a.535.535,0,1,1,0-1.069h3.984a.525.525,0,0,1,.414.21,15.561,15.561,0,0,0,4.005-5.021H15.607a.535.535,0,1,1,0-1.069H29.627a.531.531,0,0,1,.214.046A15.432,15.432,0,0,0,31,16.037H22.794A.534.534,0,0,1,22.26,15.5Z" transform="translate(-0.012 0)" fill="#c68630"/><circle cx="10.959" cy="10.959" r="10.959" transform="translate(1.604 2.673)" fill="#dc9628"/><circle cx="6.415" cy="6.415" r="6.415" transform="translate(4.811 6.415)" fill="#eeaf4b"/><path d="M28.709,40a.535.535,0,0,0,0,1.069H42.472c.168-.335.326-.675.47-1.023A.53.53,0,0,0,42.728,40Z" transform="translate(-13.113 -18.617)" fill="#fac176"/><path d="M13.823,40.535A.535.535,0,0,0,13.289,40H2.414a.523.523,0,0,0-.214.047c.144.347.3.688.47,1.023H13.289A.535.535,0,0,0,13.823,40.535Z" transform="translate(-1.024 -18.617)" fill="#f18d46"/><path d="M5.205,28.535A.535.535,0,0,0,4.671,28H.013c-.006.178-.013.355-.013.535s.007.357.013.535H4.671A.534.534,0,0,0,5.205,28.535Z" transform="translate(0 -13.032)" fill="#f3d55b"/><path d="M41,11.535a.535.535,0,0,0,.535.535H46.88a.527.527,0,0,0,.452-.266q-.285-.411-.6-.8h-5.2A.535.535,0,0,0,41,11.535Z" transform="translate(-19.082 -5.12)" fill="#f09372"/><path d="M50.362,28H42.153a.535.535,0,0,0,0,1.069h8.209c.006-.178.013-.355.013-.535S50.368,28.178,50.362,28Z" transform="translate(-19.37 -13.032)" fill="#f29c1f"/><path d="M22.992,51.535A.535.535,0,0,0,22.457,51H10.985a.525.525,0,0,0-.414.21q.553.455,1.148.86H22.457A.535.535,0,0,0,22.992,51.535Z" transform="translate(-4.92 -23.737)" fill="#fac176"/><path d="M42.721,51H38.738a.535.535,0,0,0,0,1.069h3.249q.594-.4,1.148-.86A.522.522,0,0,0,42.721,51Z" transform="translate(-17.781 -23.737)" fill="#f18d46"/><path d="M30.263,17.535a.535.535,0,0,0,.535.535H43.933a.53.53,0,0,0,.2-.04c-.13-.35-.274-.692-.428-1.03H30.8A.534.534,0,0,0,30.263,17.535Z" transform="translate(-14.085 -7.912)" fill="#fac176"/><path d="M14.021,18.069a.535.535,0,1,0,0-1.069H2.228c-.153.337-.3.68-.428,1.03a.53.53,0,0,0,.2.04Z" transform="translate(-0.838 -7.912)" fill="#f3d55b"/><g transform="translate(0.535)"><circle cx="0.535" cy="0.535" r="0.535" transform="translate(1.069 1.604)" fill="#f3d55b"/><circle cx="0.535" cy="0.535" r="0.535" transform="translate(2.673 28.867)" fill="#f3d55b"/><circle cx="0.535" cy="0.535" r="0.535" transform="translate(0 25.125)" fill="#f3d55b"/><circle cx="0.535" cy="0.535" r="0.535" transform="translate(5.88)" fill="#f3d55b"/><circle cx="0.535" cy="0.535" r="0.535" transform="translate(27.263 1.604)" fill="#f3d55b"/></g><path d="M25.723,28H14.884a.535.535,0,0,0,0,1.069h10.84a.535.535,0,1,0,0-1.069Z" transform="translate(-6.678 -13.032)" fill="#f3d55b"/><path d="M32.1,34H21.258a.535.535,0,1,0,0,1.069H32.1A.535.535,0,0,0,32.1,34Z" transform="translate(-9.645 -15.824)" fill="#f0c419"/><path d="M26.374,46.069H15.535a.535.535,0,1,1,0-1.069h10.84a.535.535,0,1,1,0,1.069Z" transform="translate(-6.981 -20.944)" fill="#fac176"/><path d="M28.88,23.069H23.535a.535.535,0,0,1,0-1.069H28.88a.535.535,0,1,1,0,1.069Z" transform="translate(-10.705 -10.239)" fill="#f3d55b"/><path d="M9.88,22H4.535a.535.535,0,0,0,0,1.069H9.88A.535.535,0,1,0,9.88,22Z" transform="translate(-1.862 -10.239)" fill="#f0c419"/><path d="M27.88,12.069H22.535a.535.535,0,1,1,0-1.069H27.88a.535.535,0,0,1,0,1.069Z" transform="translate(-10.239 -5.12)" fill="#f3d55b"/><path d="M21.309,6.069H15.741a.535.535,0,1,1,0-1.069h5.569a.535.535,0,1,1,0,1.069Z" transform="translate(-7.077 -2.327)" fill="#f3d55b"/><path d="M37.556,6.069H33.1A.535.535,0,1,1,33.1,5h4.455a.535.535,0,0,1,0,1.069Z" transform="translate(-15.158 -2.327)" fill="#f3d55b"/></svg>