<svg xmlns="http://www.w3.org/2000/svg" width="31.005" height="31.027" viewBox="0 0 31.005 31.027"><path d="M30.624,13.357,23.2,15.347l-.277-1.033,7.437-1.993a15.439,15.439,0,0,0-2.148-4.408L16.381,11.081,16.1,10.048,27.5,7a15.553,15.553,0,0,0-5.268-4.126L2.737,8.093A15.541,15.541,0,0,0,.232,14.3l2.236-.6.277,1.033-2.661.713a15.423,15.423,0,0,0,.34,4.892l19.155-5.133.277,1.033L.7,21.375a15.782,15.782,0,0,0,.735,1.963,1.617,1.617,0,0,1,1.481,2.552c.088.122.185.236.276.355l8.155-2.185.277,1.033L3.942,27.152a15.56,15.56,0,0,0,4.882,3.676l11.889-3.186.277,1.033L10.45,31.5A15.488,15.488,0,0,0,27.258,27l-3.444.922-.277-1.033L28.326,25.6c.081-.118.163-.235.24-.355a1.547,1.547,0,0,1,.9-2.332,1.781,1.781,0,0,1,.351-.058,15.567,15.567,0,0,0,.883-2.875l-3.35.9-.277-1.033L30.9,18.821A15.417,15.417,0,0,0,30.624,13.357Z" transform="translate(-0.021 -1.335)" fill="#5e5f62"/><path d="M14.794.532A15.569,15.569,0,0,0,11.959,1.6a1.457,1.457,0,0,1-1.126,1.547,1.463,1.463,0,0,1-1.18-.149A15.484,15.484,0,0,0,7.082,5.368L23.9.861A15.443,15.443,0,0,0,14.794.532Z" transform="translate(-3.305 0)" fill="#5e5f62"/><circle cx="10.965" cy="10.965" r="10.965" transform="translate(2.128 3.743)" fill="#77797f"/><circle cx="6.151" cy="6.151" r="6.151" transform="translate(4.802 8.022)" fill="#868c9b"/><circle cx="0.535" cy="0.535" r="0.535" transform="translate(0.53 0.832)" fill="#f3d55b"/><circle cx="0.535" cy="0.535" r="0.535" transform="translate(4.809 29.715)" fill="#f3d55b"/><circle cx="0.535" cy="0.535" r="0.535" transform="translate(28.878 27.041)" fill="#f3d55b"/><circle cx="0.535" cy="0.535" r="0.535" transform="translate(0.53 28.645)" fill="#f3d55b"/><circle cx="0.535" cy="0.535" r="0.535" transform="translate(2.826 2.729)" fill="#f3d55b"/><circle cx="0.535" cy="0.535" r="0.535" transform="translate(27.273 1.367)" fill="#f3d55b"/><g transform="translate(0.063 0.861)"><path d="M30.335,32.627c0-.031,0-.063-.005-.094a2.094,2.094,0,0,0-2.024-1.9,2.255,2.255,0,0,0-.585.08A2.011,2.011,0,0,0,26.21,33a2.356,2.356,0,0,0,.2.682l-8.623,2.311a1.978,1.978,0,0,0-1.78-1.134,2.255,2.255,0,0,0-.585.08,1.989,1.989,0,0,0-1.521,2.1L5.953,39.16q.358.469.748.907l7.5-2.01a1.964,1.964,0,0,0,1.735,1.055,2.255,2.255,0,0,0,.585-.08,1.985,1.985,0,0,0,1.525-2.005l9.134-2.448a1.9,1.9,0,0,0,1.054.314,2.255,2.255,0,0,0,.585-.08,1.971,1.971,0,0,0,1.3-1.021l3.346-.9q.12-.574.2-1.16ZM16.244,38a1.017,1.017,0,0,1-1.271-.924.953.953,0,0,1,.727-1.108,1.2,1.2,0,0,1,.308-.043,1.027,1.027,0,0,1,.964.967A.953.953,0,0,1,16.244,38Zm12.3-4.219a1.017,1.017,0,0,1-1.271-.924A.953.953,0,0,1,28,31.748a1.2,1.2,0,0,1,.308-.043,1.027,1.027,0,0,1,.964.967A.953.953,0,0,1,28.542,33.78Z" transform="translate(-2.843 -15.111)" fill="#7684a3"/><path d="M22.975,1.61,6.16,6.116A15.528,15.528,0,0,0,5.1,7.507L24.6,2.283A15.623,15.623,0,0,0,22.975,1.61Z" transform="translate(-2.446 -1.61)" fill="#7684a3"/><path d="M4.366,19.424a2.276,2.276,0,0,0,.584-.079A1.985,1.985,0,0,0,6.475,17.34l6.273-1.681a2,2,0,0,0,1.824,1.215,2.255,2.255,0,0,0,.585-.08,2,2,0,0,0,1.516-2.187L28.263,11.5c-.223-.317-.461-.621-.705-.918L16.332,13.591a1.954,1.954,0,0,0-1.689-.975,2.255,2.255,0,0,0-.585.08,1.982,1.982,0,0,0-1.527,1.913L6.217,16.3a1.979,1.979,0,0,0-1.781-1.134,2.276,2.276,0,0,0-.584.079,1.99,1.99,0,0,0-1.521,2.1L.287,17.89q-.1.569-.148,1.147l2.492-.668A1.963,1.963,0,0,0,4.366,19.424Zm9.97-5.695a1.2,1.2,0,0,1,.308-.043,1.028,1.028,0,0,1,.964.967.953.953,0,0,1-.727,1.108,1.017,1.017,0,0,1-1.271-.924A.953.953,0,0,1,14.336,13.729ZM4.129,16.279a1.2,1.2,0,0,1,.307-.043A1.027,1.027,0,0,1,5.4,17.2a.952.952,0,0,1-.727,1.108A1.016,1.016,0,0,1,3.4,17.387.952.952,0,0,1,4.129,16.279Z" transform="translate(-0.139 -5.784)" fill="#7684a3"/><path d="M31.711,45.682a2.094,2.094,0,0,0-2.024-1.9,2.255,2.255,0,0,0-.585.08,2.01,2.01,0,0,0-1.51,2.281,2.351,2.351,0,0,0,.2.682L16.478,49.858a15.5,15.5,0,0,0,1.625.672l10.458-2.8a1.9,1.9,0,0,0,1.054.314,2.255,2.255,0,0,0,.585-.08,1.968,1.968,0,0,0,1.3-1.022l3.412-.914a15.558,15.558,0,0,0,1.07-1.394l-4.265,1.142C31.713,45.744,31.715,45.712,31.711,45.682Zm-1.787,1.247A1.018,1.018,0,0,1,28.652,46a.952.952,0,0,1,.726-1.108,1.2,1.2,0,0,1,.308-.043,1.027,1.027,0,0,1,.964.968A.952.952,0,0,1,29.924,46.929Z" transform="translate(-7.739 -21.226)" fill="#7684a3"/><path d="M21.639,25.6a2.255,2.255,0,0,0,.585-.08,1.984,1.984,0,0,0,1.525-2.005l7.224-1.936c-.04-.174-.07-.348-.117-.523s-.1-.343-.151-.513l-7.215,1.933a1.979,1.979,0,0,0-1.78-1.134,2.255,2.255,0,0,0-.585.08,1.99,1.99,0,0,0-1.521,2.1L.773,28.561c.04.174.072.348.118.522s.109.34.161.511L19.9,24.543A1.964,1.964,0,0,0,21.639,25.6ZM21.4,22.453a1.2,1.2,0,0,1,.308-.043,1.028,1.028,0,0,1,.964.967.953.953,0,0,1-.727,1.108,1.017,1.017,0,0,1-1.271-.924A.953.953,0,0,1,21.4,22.453Z" transform="translate(-0.434 -10.415)" fill="#7684a3"/></g></svg>