<svg xmlns="http://www.w3.org/2000/svg" width="38.095" height="39.48" viewBox="0 0 38.095 39.48"><ellipse cx="15.931" cy="15.931" rx="15.931" ry="15.931" transform="translate(2.078 7.619)" fill="#a5a5a4"/><line y1="6.926" transform="translate(18.009 0.693)" fill="none" stroke="#8697cb" stroke-miterlimit="10" stroke-width="2"/><rect width="5.541" height="4.156" transform="translate(18.701 0.693)" fill="#48a0dc"/><circle cx="3.81" cy="3.81" r="3.81" transform="translate(20.779 18.009)" fill="#d1d4d1"/><path d="M5.548,22.6a4.5,4.5,0,1,0,5.3-7A15.977,15.977,0,0,0,5.548,22.6Z" transform="translate(-2.398 -4.793)" fill="#5e5f62"/><path d="M16.5,45A4.5,4.5,0,0,0,12,49.454a15.867,15.867,0,0,0,7.315,3.559A4.5,4.5,0,0,0,16.5,45Z" transform="translate(-4.382 -13.831)" fill="#bdc3c7"/><circle cx="0.693" cy="0.693" r="0.693" transform="translate(4.848 4.156)" fill="#f18d46"/><circle cx="0.693" cy="0.693" r="0.693" transform="translate(0 33.939)" fill="#f18d46"/><circle cx="0.693" cy="0.693" r="0.693" transform="translate(33.247 37.403)" fill="#f18d46"/><g transform="translate(4.156 10.39)"><circle cx="0.693" cy="0.693" r="0.693" transform="translate(7.619 13.16)" fill="#f3d55b"/><circle cx="0.693" cy="0.693" r="0.693" transform="translate(12.468 8.312)" fill="#f3d55b"/><circle cx="0.693" cy="0.693" r="0.693" transform="translate(2.771 17.316)" fill="#f3d55b"/><circle cx="0.693" cy="0.693" r="0.693" transform="translate(0 12.468)" fill="#f3d55b"/><circle cx="0.693" cy="0.693" r="0.693" transform="translate(15.931 22.857)" fill="#f3d55b"/><circle cx="0.693" cy="0.693" r="0.693" transform="translate(20.087 3.463)" fill="#f3d55b"/><circle cx="0.693" cy="0.693" r="0.693" transform="translate(9.004)" fill="#f3d55b"/><circle cx="0.693" cy="0.693" r="0.693" transform="translate(13.853 2.078)" fill="#f3d55b"/><circle cx="0.693" cy="0.693" r="0.693" transform="translate(21.472 20.779)" fill="#f3d55b"/></g><path d="M51.619,3.463h-1.1L48.848,1.791V.693a.693.693,0,0,0-1.385,0v1.1L45.791,3.463h-1.1a.693.693,0,1,0,0,1.385h1.1l1.672,1.672v1.1a.693.693,0,1,0,1.385,0v-1.1l1.672-1.672h1.1a.693.693,0,0,0,0-1.385Z" transform="translate(-14.216)" fill="#f3d55b"/></svg>