<svg xmlns="http://www.w3.org/2000/svg" width="32.597" height="33.189" viewBox="0 0 32.597 33.189"><circle cx="14.224" cy="14.224" r="14.224" transform="translate(1.778 4.149)" fill="#8697cb"/><circle cx="10.964" cy="10.964" r="10.964" transform="translate(3.556 6.519)" fill="#92a8dd"/><circle cx="6.519" cy="6.519" r="6.519" transform="translate(5.334 9.483)" fill="#a4b9ed"/><path d="M50.019,2.963h-.94L47.649,1.533V.593a.593.593,0,0,0-1.185,0v.94L45.033,2.963h-.94a.593.593,0,0,0,0,1.185h.94l1.431,1.431v.94a.593.593,0,1,0,1.185,0v-.94l1.431-1.431h.94a.593.593,0,0,0,0-1.185Z" transform="translate(-18.015)" fill="#f3d55b"/><circle cx="0.593" cy="0.593" r="0.593" transform="translate(2.963 2.963)" fill="#f3d55b"/><circle cx="0.593" cy="0.593" r="0.593" transform="translate(30.819 11.853)" fill="#f3d55b"/><circle cx="0.593" cy="0.593" r="0.593" transform="translate(23.707 1.185)" fill="#f3d55b"/><circle cx="0.593" cy="0.593" r="0.593" transform="translate(18.373 7.112)" fill="#f3d55b"/><circle cx="0.593" cy="0.593" r="0.593" transform="translate(20.151 26.67)" fill="#f3d55b"/><circle cx="0.593" cy="0.593" r="0.593" transform="translate(1.185 32.004)" fill="#f3d55b"/><circle cx="0.593" cy="0.593" r="0.593" transform="translate(0 25.485)" fill="#f3d55b"/><path d="M28.723,21.5a2.589,2.589,0,0,1-2.638-2.058.993.993,0,0,0-1.419-.659,4.14,4.14,0,0,0-2.163,3.5,4.2,4.2,0,0,0,4.075,4.284A4.15,4.15,0,0,0,30.8,22.42c0-.036,0-.072,0-.108a.994.994,0,0,0-1.255-.924A2.974,2.974,0,0,1,28.723,21.5Z" transform="translate(-9.461 -7.603)" fill="#556080"/><path d="M8.576,14.164a2.663,2.663,0,1,0,3.236-3.033A14.294,14.294,0,0,0,8.576,14.164Z" transform="translate(-3.79 -4.534)" fill="#556080"/><path d="M43.373,21.627a1.777,1.777,0,0,1-2.38-.813" transform="translate(-16.994 -8.478)" fill="none" stroke="#556080" stroke-linecap="round" stroke-miterlimit="10" stroke-width="2"/><path d="M26.278,11A1.777,1.777,0,0,1,24.5,12.778" transform="translate(-10.276 -4.481)" fill="none" stroke="#556080" stroke-linecap="round" stroke-miterlimit="10" stroke-width="2"/><path d="M22.278,36A1.777,1.777,0,0,1,20.5,37.778" transform="translate(-8.647 -14.664)" fill="none" stroke="#556080" stroke-linecap="round" stroke-miterlimit="10" stroke-width="2"/><path d="M40.188,31.54a1.776,1.776,0,0,1,.962,2.323" transform="translate(-16.666 -12.847)" fill="none" stroke="#556080" stroke-linecap="round" stroke-miterlimit="10" stroke-width="2"/><path d="M10.647,31a1.776,1.776,0,0,1,.962,2.323" transform="translate(-4.633 -12.627)" fill="none" stroke="#556080" stroke-linecap="round" stroke-miterlimit="10" stroke-width="2"/></svg>