<svg xmlns="http://www.w3.org/2000/svg" width="48.175" height="48.174" viewBox="0 0 48.175 48.174"><path d="M24.088,0A24.087,24.087,0,1,0,48.175,24.088,24.087,24.087,0,0,0,24.088,0Z" transform="translate(0 0)" fill="#48b5dc"/><path d="M21.344,9.07H16.5a12.471,12.471,0,0,1,3.35-6.113,1.7,1.7,0,0,0-2.3-2.512,15.588,15.588,0,0,0-4.5,8.625H9.98A15.589,15.589,0,0,0,5.479.445a1.7,1.7,0,0,0-2.3,2.511A12.477,12.477,0,0,1,6.529,9.07H1.7a1.7,1.7,0,1,0,0,3.406H6.515a12.517,12.517,0,0,1-3.421,6.05,1.7,1.7,0,0,0,2.473,2.342,15.423,15.423,0,0,0,4.406-8.392h3.08a15.424,15.424,0,0,0,4.406,8.392,1.7,1.7,0,1,0,2.473-2.342,12.517,12.517,0,0,1-3.421-6.05h4.833a1.7,1.7,0,1,0,0-3.406Z" transform="translate(12.452 13.347)" fill="#fff"/></svg>