<svg xmlns="http://www.w3.org/2000/svg" width="18.053" height="16.763" viewBox="0 0 18.053 16.763"><path d="M16.719,7.1h-3.8a9.768,9.768,0,0,1,2.624-4.788,1.334,1.334,0,0,0-1.8-1.968A12.211,12.211,0,0,0,10.218,7.1h-2.4A12.211,12.211,0,0,0,4.292.349a1.334,1.334,0,0,0-1.8,1.967A9.773,9.773,0,0,1,5.114,7.1H1.334a1.334,1.334,0,1,0,0,2.668H5.1a9.8,9.8,0,0,1-2.68,4.739,1.334,1.334,0,0,0,1.937,1.835A12.081,12.081,0,0,0,7.812,9.772h2.413a12.082,12.082,0,0,0,3.451,6.574,1.334,1.334,0,1,0,1.937-1.835,9.8,9.8,0,0,1-2.68-4.739h3.786a1.334,1.334,0,1,0,0-2.668Z" fill="#5e4490"/></svg>