<svg xmlns="http://www.w3.org/2000/svg" width="26.806" height="26.808" viewBox="0 0 26.806 26.808"><path d="M26.822,13.4A13.4,13.4,0,1,1,13.419,0,13.4,13.4,0,0,1,26.822,13.4Zm0,0" transform="translate(-0.016)" fill="#816d58"/><path d="M25.869,12.742A13.379,13.379,0,0,0,20.578,2.074,13.4,13.4,0,0,0,5.743,24.333,13.4,13.4,0,0,0,25.869,12.742Zm0,0" transform="translate(-0.45 -0.263)" fill="#8d7761"/><path d="M158.9,251.792l-3.453,1.088a3.217,3.217,0,0,0-4.128-2.072,3.306,3.306,0,0,0-1.968,4.131l1.085,3.451a5.362,5.362,0,0,0,3.333,3.448l-.393,1.1c.2.008.392.015.59.015a13.366,13.366,0,0,0,4.438-.756l0-.02-.883-2.722a.462.462,0,0,1,.3-.583l3.135-.986a3.217,3.217,0,0,0,2.072-4.128,3.306,3.306,0,0,0-4.134-1.968Zm0,0" transform="translate(-140.565 -236.149)" fill="#89745e"/><path d="M157.824,258.874l3.135-.986a3.217,3.217,0,0,0,2.072-4.128,3.306,3.306,0,0,0-4.131-1.968l-3.453,1.088a3.217,3.217,0,0,0-4.128-2.072,3.306,3.306,0,0,0-1.968,4.131l1.085,3.451a5.362,5.362,0,0,0,3.333,3.448l-.051.143a13.317,13.317,0,0,0,4.27-1.089l-.465-1.433a.462.462,0,0,1,.3-.584Zm0,0" transform="translate(-140.565 -236.149)" fill="#9a826a"/><g transform="translate(0.026 3.697)"><path d="M114.789,105.387A1.387,1.387,0,1,1,113.4,104,1.387,1.387,0,0,1,114.789,105.387Zm0,0" transform="translate(-105.572 -101.689)" fill="#746250"/><path d="M232.016,88h.924v.924h-.924Zm0,0" transform="translate(-218.64 -86.614)" fill="#746250"/><path d="M344.016,104h.924v.924h-.924Zm0,0" transform="translate(-324.169 -101.689)" fill="#746250"/><path d="M280.016,72h.924v.924h-.924Zm0,0" transform="translate(-263.867 -71.538)" fill="#746250"/><path d="M176.016,64h.924v.924h-.924Zm0,0" transform="translate(-165.875 -64)" fill="#746250"/><path d="M48.016,160h.924v.924h-.924Zm0,0" transform="translate(-45.269 -154.454)" fill="#746250"/><path d="M224.016,176h.924v.924h-.924Zm0,0" transform="translate(-211.102 -169.53)" fill="#746250"/><path d="M96.016,360h.924v.924h-.924Zm0,0" transform="translate(-90.496 -342.9)" fill="#746250"/><path d="M64.016,336h.924v.924h-.924Zm0,0" transform="translate(-60.345 -320.286)" fill="#746250"/><path d="M257.859,197.662h-.019l-1.386-.056a.463.463,0,1,1,.037-.924l1.387.056a.462.462,0,1,1-.018.924Zm0,0" transform="translate(-241.247 -189.016)" fill="#746250"/><path d="M328.195,193.252c-.031-.309-.077-.613-.13-.916l-.59.066a54.628,54.628,0,0,1-7.059.323h-.009a.462.462,0,0,0-.009.924q.519.01,1.039.01a55.541,55.541,0,0,0,6.14-.337Zm0,0" transform="translate(-301.485 -184.922)" fill="#746250"/><path d="M258.569,140.08a43.159,43.159,0,0,1-4.7-.195l-.647-.108a.462.462,0,0,1,.152-.912l.647.108a41.23,41.23,0,0,0,4.544.183.462.462,0,1,1,0,.924Zm0,0" transform="translate(-238.26 -134.534)" fill="#746250"/><path d="M387.653,140.143a.426.426,0,0,0,.085-.03q-.158-.441-.343-.867l-.976.139c-.355.05-1.094.092-2.08.114a.462.462,0,1,0,.011.924h.011c.721-.017,1.686-.052,2.187-.123Zm0,0" transform="translate(-361.732 -134.9)" fill="#746250"/><path d="M64.3,251.909a.462.462,0,1,1-.021-.924c.52-.024,1.048-.069,1.568-.134l1.169-.146a.462.462,0,0,1,.115.917l-1.169.146c-.545.068-1.1.115-1.639.139Zm0,0" transform="translate(-60.17 -239.916)" fill="#746250"/><path d="M3.222,252.313c-.486-.02-.977-.059-1.461-.115l-.816-.092c.027.317.063.632.112.942l.6.067c.506.058,1.02.1,1.528.119H3.2a.462.462,0,1,0,.019-.924Zm0,0" transform="translate(-0.918 -241.239)" fill="#746250"/><path d="M15.517,296l-1.169.146a20.364,20.364,0,0,1-4.2.079c.1.323.213.643.336.957.445.028.891.046,1.338.046a21.33,21.33,0,0,0,2.637-.164l1.169-.146a.462.462,0,1,0-.115-.917Zm0,0" transform="translate(-9.593 -282.589)" fill="#746250"/><path d="M96.5,200.294a.462.462,0,0,1-.049-.922c.453-.049.911-.112,1.358-.187a.462.462,0,1,1,.153.911c-.465.078-.94.143-1.411.195Zm0,0" transform="translate(-90.515 -191.368)" fill="#746250"/><path d="M4.59,202.276a24.815,24.815,0,0,1-2.7-.055l-1.334-.1c-.039.3-.069.61-.088.92l1.352.1c.634.046,1.275.072,1.916.072q.442,0,.881-.015a.462.462,0,1,0-.032-.924Zm0,0" transform="translate(-0.473 -194.142)" fill="#746250"/></g></svg>