<svg xmlns="http://www.w3.org/2000/svg" width="48.175" height="48.174" viewBox="0 0 48.175 48.174"><path d="M24.088,0A24.087,24.087,0,1,0,48.175,24.088,24.087,24.087,0,0,0,24.088,0Z" transform="translate(0 0)" fill="#e82b88"/><path d="M19.23.539,19.221.526l-.04-.048L19.131.424,19.108.4a1.364,1.364,0,0,0-1.086-.4H11.64a1.376,1.376,0,0,0,0,2.752h3.188l-6,6.043L6.469,6.453A1.375,1.375,0,1,0,4.531,8.4l2.358,2.348L.4,17.285a1.375,1.375,0,1,0,1.949,1.941l6.489-6.533,2.352,2.343a1.375,1.375,0,0,0,1.938-1.952l-2.353-2.343,5.99-6.031V7.889a1.374,1.374,0,1,0,2.748,0V1.494c0-.037.006-.075.006-.113A1.37,1.37,0,0,0,19.23.539Z" transform="translate(14.255 14.351)" fill="#fff"/></svg>