<svg xmlns="http://www.w3.org/2000/svg" width="15.906" height="15.998" viewBox="0 0 15.906 15.998"><path d="M15.671.439l-.007-.01L15.63.39,15.59.346,15.571.326A1.112,1.112,0,0,0,14.687,0h-5.2a1.121,1.121,0,0,0,0,2.243h2.6L7.193,7.172,5.272,5.258a1.121,1.121,0,1,0-1.58,1.59L5.613,8.762.326,14.086a1.121,1.121,0,1,0,1.588,1.582L7.2,10.344l1.917,1.909a1.121,1.121,0,0,0,1.58-1.59L8.781,8.753l4.881-4.915v2.59a1.12,1.12,0,1,0,2.24,0V1.218c0-.03,0-.061,0-.092A1.117,1.117,0,0,0,15.671.439Z" fill="#5e4490"/></svg>