<svg xmlns="http://www.w3.org/2000/svg" width="42.074" height="42.074" viewBox="0 0 42.074 42.074"><g transform="translate(6.572 5.561)"><ellipse cx="14.97" cy="14.97" rx="14.97" ry="14.97" fill="#f9c38a"/></g><g transform="translate(8.763 7.751)"><ellipse cx="10.589" cy="10.589" rx="10.589" ry="10.589" fill="#ffd199"/></g><g transform="translate(11.684 9.942)"><ellipse cx="5.477" cy="5.477" rx="5.477" ry="5.477" fill="#ffd8ae"/></g><path d="M9.033,6.266H7.875L6.112,4.5V3.345a.73.73,0,0,0-1.461,0V4.5L2.888,6.266H1.73a.73.73,0,1,0,0,1.461H2.888L4.651,9.49v1.158a.73.73,0,0,0,1.461,0V9.49L7.875,7.727H9.033a.73.73,0,1,0,0-1.461Z" transform="translate(-0.27 -0.706)" fill="#f3d55b"/><ellipse cx="0.73" cy="0.73" rx="0.73" ry="0.73" transform="translate(35.782 39.152)" fill="#f3d55b"/><ellipse cx="0.73" cy="0.73" rx="0.73" ry="0.73" transform="translate(39.433 24.547)" fill="#f3d55b"/><ellipse cx="0.73" cy="0.73" rx="0.73" ry="0.73" transform="translate(2.921 16.515)" fill="#f3d55b"/><ellipse cx="0.73" cy="0.73" rx="0.73" ry="0.73" transform="translate(16.796 17.245)" fill="#f3d55b"/><ellipse cx="0.73" cy="0.73" rx="0.73" ry="0.73" transform="translate(21.907 39.883)" fill="#f3d55b"/><path d="M34.964,8.928l0,0C35.012,8.951,34.964,8.928,34.964,8.928Z" transform="translate(-9.431 -2.408)" fill="#f9eab0"/><path d="M34.965,8.928Z" transform="translate(-9.432 -2.408)" fill="#f9eab0"/><path d="M41.913.161c-.935-.935-5.769,2.262-12.235,7.822.423.276.828.575,1.22.891a61.479,61.479,0,0,1,9.039-6.737c-1.478,2.782-7.01,10.109-17.35,20.448S4.92,38.458,2.138,39.936A67.02,67.02,0,0,1,9.815,29.8c-.311-.393-.608-.8-.879-1.221C2.794,35.593-.825,40.926.161,41.913c1.426,1.426,11.928-6.764,23.457-18.294S43.338,1.587,41.913.161Z" transform="translate(0 0)" fill="#f9eab0"/></svg>