<svg xmlns="http://www.w3.org/2000/svg" width="47.743" height="47.744" viewBox="0 0 47.743 47.744"><ellipse cx="17.586" cy="17.586" rx="17.586" ry="17.586" transform="translate(6.285 6.285)" fill="#f3d55b"/><ellipse cx="13.608" cy="13.608" rx="13.608" ry="13.608" transform="translate(10.264 10.264)" fill="#f0c419"/><circle cx="7.957" cy="7.957" r="7.957" transform="translate(15.914 15.915)" fill="#eda71b"/><g transform="translate(6.366 6.366)"><path d="M29.8,8a.8.8,0,0,0-.8.8v1.591a.8.8,0,0,0,1.591,0V8.8A.8.8,0,0,0,29.8,8Z" transform="translate(-12.29 -8)" fill="#f0c419"/><path d="M29.8,48a.8.8,0,0,0-.8.8v1.591a.8.8,0,0,0,1.591,0V48.8A.8.8,0,0,0,29.8,48Z" transform="translate(-12.29 -16.171)" fill="#f0c419"/><path d="M50.387,29H48.8a.8.8,0,0,0,0,1.591h1.591a.8.8,0,0,0,0-1.591Z" transform="translate(-16.171 -12.29)" fill="#f0c419"/><path d="M11.183,29.8a.8.8,0,0,0-.8-.8H8.8a.8.8,0,0,0,0,1.591h1.591A.8.8,0,0,0,11.183,29.8Z" transform="translate(-8 -12.29)" fill="#f0c419"/><path d="M43.794,14.383l-1.126,1.125a.8.8,0,0,0,1.125,1.127l1.126-1.125a.8.8,0,0,0-1.125-1.127Z" transform="translate(-15.034 -9.256)" fill="#f0c419"/><path d="M15.509,42.668l-1.126,1.125a.8.8,0,0,0,1.125,1.127L16.634,43.8a.8.8,0,0,0-1.125-1.127Z" transform="translate(-9.256 -15.034)" fill="#f0c419"/><path d="M43.793,42.668a.8.8,0,1,0-1.125,1.126l1.126,1.125a.8.8,0,0,0,1.125-1.127Z" transform="translate(-15.034 -15.034)" fill="#f0c419"/><path d="M15.508,14.383a.8.8,0,0,0-1.125,1.126l1.126,1.125a.8.8,0,0,0,1.125-1.127Z" transform="translate(-9.256 -9.256)" fill="#f0c419"/><path d="M38.152,9.733a.8.8,0,0,0-1.044.422l-.621,1.465a.8.8,0,1,0,1.466.621l.621-1.465A.8.8,0,0,0,38.152,9.733Z" transform="translate(-13.806 -8.341)" fill="#f0c419"/><path d="M22.523,46.553a.8.8,0,0,0-1.044.422l-.621,1.465a.8.8,0,1,0,1.466.621l.621-1.465A.8.8,0,0,0,22.523,46.553Z" transform="translate(-10.614 -15.862)" fill="#f0c419"/><path d="M49.061,37.109,47.6,36.487a.8.8,0,1,0-.622,1.465l1.466.622a.8.8,0,1,0,.622-1.465Z" transform="translate(-15.862 -13.806)" fill="#f0c419"/><path d="M12.24,21.48l-1.466-.622a.8.8,0,1,0-.622,1.465l1.466.622a.8.8,0,1,0,.622-1.465Z" transform="translate(-8.341 -10.614)" fill="#f0c419"/><path d="M47.412,23.161a.806.806,0,0,0,.3-.058l1.475-.6a.8.8,0,0,0-.6-1.476l-1.475.6a.8.8,0,0,0,.3,1.534Z" transform="translate(-15.888 -10.65)" fill="#f0c419"/><path d="M11.5,36.015l-1.475.6a.8.8,0,0,0,.3,1.534.806.806,0,0,0,.3-.058l1.475-.6a.8.8,0,0,0-.6-1.476Z" transform="translate(-8.312 -13.711)" fill="#f0c419"/><path d="M37.65,46.953a.8.8,0,0,0-1.475.6l.6,1.475a.8.8,0,0,0,.738.5.806.806,0,0,0,.3-.058.8.8,0,0,0,.439-1.036Z" transform="translate(-13.744 -15.856)" fill="#f0c419"/><path d="M22.666,9.866a.8.8,0,0,0-1.475.6l.6,1.475a.8.8,0,0,0,.738.5.806.806,0,0,0,.3-.058.8.8,0,0,0,.439-1.036Z" transform="translate(-10.683 -8.28)" fill="#f0c419"/></g><g transform="translate(11.14 11.14)"><path d="M29.808,14a.748.748,0,0,0-.749.749v1.5a.749.749,0,1,0,1.5,0v-1.5A.748.748,0,0,0,29.808,14Z" transform="translate(-17.076 -14)" fill="#eda71b"/><path d="M29.808,42.235a.748.748,0,0,0-.749.749v1.5a.749.749,0,1,0,1.5,0v-1.5A.749.749,0,0,0,29.808,42.235Z" transform="translate(-17.076 -19.768)" fill="#eda71b"/><path d="M44.482,29.059h-1.5a.749.749,0,0,0,0,1.5h1.5a.749.749,0,1,0,0-1.5Z" transform="translate(-19.768 -17.076)" fill="#eda71b"/><path d="M17,29.808a.748.748,0,0,0-.749-.749h-1.5a.749.749,0,1,0,0,1.5h1.5A.749.749,0,0,0,17,29.808Z" transform="translate(-14 -17.076)" fill="#eda71b"/><path d="M39.125,20.967a.744.744,0,0,0,.529-.22l1.059-1.059a.749.749,0,1,0-1.059-1.059l-1.059,1.059a.749.749,0,0,0,.53,1.279Z" transform="translate(-18.979 -14.901)" fill="#eda71b"/><path d="M19.689,38.6,18.63,39.655a.749.749,0,1,0,1.058,1.059l1.059-1.059A.749.749,0,1,0,19.689,38.6Z" transform="translate(-14.901 -18.979)" fill="#eda71b"/><path d="M39.655,38.6A.749.749,0,1,0,38.6,39.655l1.059,1.059a.749.749,0,0,0,1.058-1.059Z" transform="translate(-18.979 -18.979)" fill="#eda71b"/><path d="M19.689,18.631A.749.749,0,1,0,18.63,19.69l1.059,1.059a.749.749,0,0,0,1.058-1.059Z" transform="translate(-14.901 -14.901)" fill="#eda71b"/><path d="M35.834,15.257a.749.749,0,0,0-.982.4l-.585,1.379a.749.749,0,0,0,1.38.585l.585-1.379A.75.75,0,0,0,35.834,15.257Z" transform="translate(-18.128 -14.245)" fill="#eda71b"/><path d="M24.8,41.248a.749.749,0,0,0-.982.4l-.585,1.379a.749.749,0,0,0,1.38.585L25.2,42.23A.75.75,0,0,0,24.8,41.248Z" transform="translate(-15.874 -19.554)" fill="#eda71b"/><path d="M43.609,34.852l-1.379-.585a.749.749,0,0,0-.585,1.379l1.379.585a.749.749,0,1,0,.585-1.379Z" transform="translate(-19.554 -18.128)" fill="#eda71b"/><path d="M15.653,24.614l1.379.585a.749.749,0,1,0,.586-1.379l-1.379-.585a.749.749,0,0,0-.586,1.379Z" transform="translate(-14.244 -15.874)" fill="#eda71b"/><path d="M41.331,24.858a.748.748,0,0,0,.694.469.76.76,0,0,0,.281-.055l1.389-.561a.749.749,0,0,0-.562-1.389l-1.389.561A.748.748,0,0,0,41.331,24.858Z" transform="translate(-19.572 -15.893)" fill="#eda71b"/><path d="M17.928,34.312a.749.749,0,0,0-.975-.414l-1.389.561a.749.749,0,0,0,.281,1.443.76.76,0,0,0,.281-.055l1.389-.561A.748.748,0,0,0,17.928,34.312Z" transform="translate(-14.224 -18.053)" fill="#eda71b"/><path d="M35.438,41.593a.749.749,0,1,0-1.388.562l.562,1.389a.749.749,0,0,0,.694.469.76.76,0,0,0,.281-.055A.749.749,0,0,0,36,42.981Z" transform="translate(-18.084 -19.541)" fill="#eda71b"/><path d="M24.861,15.414a.749.749,0,1,0-1.388.562l.562,1.389a.749.749,0,0,0,.694.469.76.76,0,0,0,.281-.055.749.749,0,0,0,.413-.976Z" transform="translate(-15.924 -14.193)" fill="#eda71b"/></g><path d="M29.8,0a.8.8,0,0,0-.8.8V4.774a.8.8,0,0,0,1.591,0V.8A.8.8,0,0,0,29.8,0Z" transform="translate(-5.924)" fill="#f3d55b"/><path d="M29.8,53a.8.8,0,0,0-.8.8v3.979a.8.8,0,0,0,1.591,0V53.8A.8.8,0,0,0,29.8,53Z" transform="translate(-5.924 -10.827)" fill="#f3d55b"/><path d="M57.774,29H53.8a.8.8,0,0,0,0,1.591h3.979a.8.8,0,0,0,0-1.591Z" transform="translate(-10.827 -5.924)" fill="#f3d55b"/><path d="M5.57,29.8a.8.8,0,0,0-.8-.8H.8a.8.8,0,0,0,0,1.591H4.774A.8.8,0,0,0,5.57,29.8Z" transform="translate(0 -5.924)" fill="#f3d55b"/><path d="M46.767,12.9a.794.794,0,0,0,.563-.233l2.813-2.813a.8.8,0,0,0-1.125-1.125L46.2,11.54a.8.8,0,0,0,.563,1.358Z" transform="translate(-9.391 -1.735)" fill="#f3d55b"/><path d="M11.54,46.2,8.727,49.017a.8.8,0,1,0,1.125,1.125l2.813-2.813A.8.8,0,1,0,11.54,46.2Z" transform="translate(-1.735 -9.391)" fill="#f3d55b"/><path d="M47.329,46.2A.8.8,0,1,0,46.2,47.329l2.813,2.813a.8.8,0,0,0,1.125-1.125Z" transform="translate(-9.391 -9.391)" fill="#f3d55b"/><path d="M9.852,8.727A.8.8,0,0,0,8.727,9.852l2.813,2.813a.8.8,0,0,0,1.125-1.125Z" transform="translate(-1.735 -1.735)" fill="#f3d55b"/><path d="M41.039,2.369a.8.8,0,0,0-1.044.422L38.441,6.453a.8.8,0,1,0,1.466.621L41.46,3.412A.8.8,0,0,0,41.039,2.369Z" transform="translate(-7.84 -0.471)" fill="#f3d55b"/><path d="M20.33,51.156a.8.8,0,0,0-1.044.422L17.732,55.24a.8.8,0,1,0,1.466.621L20.751,52.2A.8.8,0,0,0,20.33,51.156Z" transform="translate(-3.609 -10.437)" fill="#f3d55b"/><path d="M55.86,40,52.2,38.441a.8.8,0,1,0-.622,1.465l3.663,1.555A.8.8,0,1,0,55.86,40Z" transform="translate(-10.437 -7.84)" fill="#f3d55b"/><path d="M2.79,19.2l3.663,1.555a.8.8,0,1,0,.622-1.465L3.413,17.732A.8.8,0,1,0,2.79,19.2Z" transform="translate(-0.471 -3.609)" fill="#f3d55b"/><path d="M51.31,20.561a.794.794,0,0,0,.738.5.806.806,0,0,0,.3-.058l3.69-1.49a.8.8,0,0,0-.6-1.476l-3.69,1.49A.8.8,0,0,0,51.31,20.561Z" transform="translate(-10.47 -3.672)" fill="#f3d55b"/><path d="M7.334,38.328a.8.8,0,0,0-1.036-.44l-3.69,1.49a.8.8,0,0,0,.3,1.534.806.806,0,0,0,.3-.058l3.69-1.49A.8.8,0,0,0,7.334,38.328Z" transform="translate(-0.431 -7.728)" fill="#f3d55b"/><path d="M39.523,51.589a.8.8,0,1,0-1.475.6l1.49,3.689a.794.794,0,0,0,.738.5.806.806,0,0,0,.3-.058.8.8,0,0,0,.439-1.036Z" transform="translate(-7.76 -10.437)" fill="#f3d55b"/><path d="M19.669,2.449a.8.8,0,1,0-1.475.6l1.49,3.689a.794.794,0,0,0,.738.5.806.806,0,0,0,.3-.058.8.8,0,0,0,.439-1.036Z" transform="translate(-3.705 -0.399)" fill="#f3d55b"/></svg>