<svg xmlns="http://www.w3.org/2000/svg" width="48.175" height="48.174" viewBox="0 0 48.175 48.174"><path d="M24.088,0A24.087,24.087,0,1,0,48.175,24.087,24.087,24.087,0,0,0,24.088,0Z" transform="translate(0 0)" fill="#eeab19"/><path d="M21.656,0a5.528,5.528,0,0,0-4,1.409L13.393,5.6H9.661L5.393,1.413A5.528,5.528,0,0,0,1.4,0,1.459,1.459,0,0,0,0,1.527,1.463,1.463,0,0,0,1.553,2.9a2.631,2.631,0,0,1,1.683.493l.049.05,3.67,3.6A7.774,7.774,0,0,0,3.59,13.421a7.9,7.9,0,0,0,7.967,7.82,7.9,7.9,0,0,0,7.967-7.82,7.775,7.775,0,0,0-3.4-6.4L19.768,3.44l.049-.05A2.609,2.609,0,0,1,21.508,2.9a1.467,1.467,0,0,0,1.543-1.37A1.459,1.459,0,0,0,21.656,0ZM16.574,13.421A5.017,5.017,0,1,1,11.558,8.5,4.976,4.976,0,0,1,16.574,13.421Z" transform="translate(12.822 13.147)" fill="#fff"/></svg>