<svg xmlns="http://www.w3.org/2000/svg" width="34.984" height="37.858" viewBox="0 0 34.984 37.858"><circle cx="14.63" cy="14.63" r="14.63" transform="translate(3.18 4.172)" fill="#9fbdc2"/><circle cx="11.603" cy="11.603" r="11.603" transform="translate(3.507 6.081)" fill="#9fcacc"/><circle cx="9.375" cy="9.375" r="9.375" transform="translate(3.837 7.357)" fill="#add7db"/><path d="M49.257,49.741H47.349l-.636-.636V47.2a.636.636,0,0,0-1.272,0v1.908l-.636.636H42.9a.636.636,0,0,0,0,1.272H44.8l.636.636v1.908a.636.636,0,0,0,1.272,0V51.65l.636-.636h1.908a.636.636,0,0,0,0-1.272Z" transform="translate(-16.817 -16.946)" fill="#f3d55b"/><circle cx="0.636" cy="0.636" r="0.636" transform="translate(1.272 2.264)" fill="#f3d55b"/><circle cx="0.636" cy="0.636" r="0.636" transform="translate(3.18 34.704)" fill="#f3d55b"/><circle cx="0.636" cy="0.636" r="0.636" transform="translate(0 30.251)" fill="#ecf0f1"/><circle cx="0.636" cy="0.636" r="0.636" transform="translate(6.997 0.356)" fill="#f3d55b"/><circle cx="0.636" cy="0.636" r="0.636" transform="translate(32.439 2.264)" fill="#f3d55b"/><circle cx="0.636" cy="0.636" r="0.636" transform="translate(33.712 32.797)" fill="#f3d55b"/><circle cx="0.636" cy="0.636" r="0.636" transform="translate(26.397 24.765)" fill="#f3d55b"/><circle cx="0.636" cy="0.636" r="0.636" transform="translate(6.997 16.099)" fill="#f3d55b"/><path d="M26.684,33.428c-1.128,2.579-2.015,3.205-2.368,3.156-.412-.055-1.285-1.206-1.634-5.167a61.935,61.935,0,0,1,.52-12.949c1.436-10.774,4.4-17.36,5.821-17.192.33.044.984.8,1.4,3.308.432.1.855.228,1.269.368a.623.623,0,0,0,.032-.3C31.275,1.7,30.445.182,29.191.015,25.719-.443,22.954,10.7,21.941,18.3a63.239,63.239,0,0,0-.526,13.229c.352,4,1.272,6.122,2.733,6.316a1.634,1.634,0,0,0,.222.015c1.219,0,2.39-1.354,3.569-4.125a.622.622,0,0,0,.034-.335Q27.334,33.44,26.684,33.428Z" transform="translate(-9.176 -0.001)" fill="#ecf0f1"/></svg>