<svg xmlns="http://www.w3.org/2000/svg" width="32.597" height="32.015" viewBox="0 0 32.597 32.015"><circle cx="13.97" cy="13.97" r="13.97" transform="translate(1.746 3.493)" fill="#d75a4a"/><path d="M50.4,3.41H49.48L48.075,2.005V1.082a.582.582,0,0,0-1.164,0v.923L45.505,3.41h-.923a.582.582,0,0,0,0,1.164h.923L46.91,5.98V6.9a.582.582,0,0,0,1.164,0V5.98L49.48,4.575H50.4a.582.582,0,0,0,0-1.164Z" transform="translate(-18.388 -0.5)" fill="#f3d55b"/><circle cx="0.582" cy="0.582" r="0.582" transform="translate(2.91 4.657)" fill="#f3d55b"/><circle cx="0.582" cy="0.582" r="0.582" transform="translate(13.97 6.403)" fill="#f3d55b"/><circle cx="0.582" cy="0.582" r="0.582" transform="translate(30.268 9.313)" fill="#f3d55b"/><circle cx="0.582" cy="0.582" r="0.582" transform="translate(20.374 2.328)" fill="#f3d55b"/><circle cx="0.582" cy="0.582" r="0.582" transform="translate(19.791 25.612)" fill="#f3d55b"/><circle cx="0.582" cy="0.582" r="0.582" transform="translate(1.164 30.851)" fill="#f3d55b"/><circle cx="0.582" cy="0.582" r="0.582" transform="translate(0 24.448)" fill="#f3d55b"/><path d="M38.535,18.427a13.979,13.979,0,0,0-2.094-3.362c-4.039.643-12.441,2-12.441,2Z" transform="translate(-10.03 -6.587)" fill="#e57e25"/><path d="M35.562,39.34A13.879,13.879,0,0,0,36.85,35.9L18,38S29.088,38.823,35.562,39.34Z" transform="translate(-7.522 -15.295)" fill="#e57e25"/><path d="M3.211,26.371A14.033,14.033,0,0,0,3,28.774c0,.317.015.63.035.941l12.189-1.523S7.873,27.056,3.211,26.371Z" transform="translate(-1.254 -11.312)" fill="#e57e25"/><circle cx="0.582" cy="0.582" r="0.582" transform="translate(25.03 30.851)" fill="#f3d55b"/><circle cx="0.582" cy="0.582" r="0.582" transform="translate(30.268 23.865)" fill="#f3d55b"/><circle cx="0.582" cy="0.582" r="0.582" transform="translate(0 1.746)" fill="#f3d55b"/><circle cx="0.582" cy="0.582" r="0.582" transform="translate(6.403 0.582)" fill="#f3d55b"/></svg>