<svg xmlns="http://www.w3.org/2000/svg" width="20.916" height="16.102" viewBox="0 0 20.916 16.102"><path d="M20.853,7.679c.212-1.822-.116-3.107-1-3.93A4.266,4.266,0,0,0,16.5,2.887V2.2C16.5.9,15.249,0,13.461,0a4.781,4.781,0,0,0-2.615.74L10.8.773A4.7,4.7,0,0,0,6.582.329a3.124,3.124,0,0,0-.633.4A4.5,4.5,0,0,0,1.868.355,3.781,3.781,0,0,0,0,3.38,1.119,1.119,0,0,0,1.08,4.544,1.15,1.15,0,0,0,2.324,3.53,1.679,1.679,0,0,1,2.959,2.3a2.21,2.21,0,0,1,1.674.269v9.391a1.133,1.133,0,0,0,1.163,1.1,1.133,1.133,0,0,0,1.163-1.1V3.418a1.633,1.633,0,0,1,.673-1.127A2.333,2.333,0,0,1,9.4,2.568v9.39a1.165,1.165,0,0,0,2.326,0v-8.6s0,0,0,0c0-.18,0-.658.755-.967a2.417,2.417,0,0,1,1.687-.061v9.636c0,.033,0,.066,0,.1a2.079,2.079,0,0,0,.144.55,18.553,18.553,0,0,1-2.459,1.405,1.074,1.074,0,0,0-.54,1.469,1.171,1.171,0,0,0,1.048.622,1.213,1.213,0,0,0,.505-.11,21.8,21.8,0,0,0,2.989-1.726,7.889,7.889,0,0,0,3.4.88l.083,0a1.139,1.139,0,0,0,1.159-1.022,1.122,1.122,0,0,0-1.078-1.175,7.536,7.536,0,0,1-1.574-.252A8.467,8.467,0,0,0,20.853,7.679Zm-4.355,3.2V5.1a2.5,2.5,0,0,1,1.722.222c.191.177.487.688.32,2.119A6.1,6.1,0,0,1,16.5,10.874Z" fill="#5e4490"/></svg>