<svg xmlns="http://www.w3.org/2000/svg" width="48.175" height="48.174" viewBox="0 0 48.175 48.174"><path d="M24.088,0A24.087,24.087,0,1,0,48.175,24.087,24.087,24.087,0,0,0,24.088,0Z" transform="translate(0 0)" fill="#eeab19"/><path d="M27.207,10.018c.277-2.377-.151-4.054-1.308-5.128a5.566,5.566,0,0,0-4.374-1.124v-.9C21.525,1.178,19.9,0,17.562,0a6.238,6.238,0,0,0-3.411.965l-.061.043c-2.157-1.1-4.007-1.3-5.5-.579a4.075,4.075,0,0,0-.826.526C5.665-.089,3.876-.256,2.437.464A4.933,4.933,0,0,0,0,4.41,1.46,1.46,0,0,0,1.409,5.928,1.5,1.5,0,0,0,3.031,4.606,2.19,2.19,0,0,1,3.861,3a2.884,2.884,0,0,1,2.184.352V15.6a1.478,1.478,0,0,0,1.518,1.435A1.478,1.478,0,0,0,9.081,15.6V4.459a2.13,2.13,0,0,1,.878-1.47,3.044,3.044,0,0,1,2.309.361V15.6a1.52,1.52,0,0,0,3.035,0V4.377s0,0,0-.006c0-.235,0-.858.986-1.261a3.154,3.154,0,0,1,2.2-.08V15.6c0,.043,0,.086.006.128a2.713,2.713,0,0,0,.187.717,24.205,24.205,0,0,1-3.208,1.833,1.4,1.4,0,0,0-.705,1.916,1.528,1.528,0,0,0,1.368.811,1.582,1.582,0,0,0,.659-.143,28.441,28.441,0,0,0,3.9-2.252,10.292,10.292,0,0,0,4.439,1.148q.055,0,.109,0a1.486,1.486,0,0,0,1.512-1.334A1.464,1.464,0,0,0,25.351,16.9a9.832,9.832,0,0,1-2.053-.329C25.226,14.808,26.909,12.58,27.207,10.018Zm-5.682,4.169V6.649a3.256,3.256,0,0,1,2.247.289c.249.231.635.9.417,2.765A7.954,7.954,0,0,1,21.525,14.187Z" transform="translate(10.447 13.817)" fill="#fff"/></svg>